<?xml version="1.0" encoding="UTF-8"?>
<svg width="80px" height="80px" viewBox="0 0 80 80" version="1.1" xmlns="http://www.w3.org/2000/svg" xmlns:xlink="http://www.w3.org/1999/xlink">
    <!-- Generator: Sketch 57.1 (83088) - https://sketch.com -->
    <title>NP_emblem_circle white</title>
    <desc>Created with Sketch.</desc>
    <defs>
        <polygon id="path-1" points="3.52827586 0 14.9627586 15.8294253 14.9627586 0 18.8832184 0 18.8832184 22.9885057 15.3549425 22.9885057 3.92045977 7.19218391 3.92045977 22.9885057 0 22.9885057 0 0"></polygon>
        <path d="M0,0 L7.94298851,0 C9.10022989,0 10.1572414,0.186206897 11.1135632,0.55816092 C12.0703448,0.930574713 12.8882759,1.44505747 13.5668966,2.1016092 C14.2455172,2.75862069 14.7682759,3.53563218 15.1356322,4.43356322 C15.5025287,5.33103448 15.685977,6.30528736 15.685977,7.35632184 C15.685977,8.40735632 15.5025287,9.3816092 15.1356322,10.2790805 C14.7682759,11.1770115 14.2455172,11.954023 13.5668966,12.6110345 C12.8882759,13.2675862 12.0703448,13.782069 11.1135632,14.1544828 C10.1572414,14.5264368 9.10022989,14.7126437 7.94298851,14.7126437 L4.00505747,14.7126437 L4.00505747,22.9885057 L0,22.9885057 L0,0 Z M7.44275862,10.9687356 C8.82206897,10.9687356 9.86206897,10.6404598 10.5632184,9.98344828 C11.263908,9.32689655 11.6142529,8.45103448 11.6142529,7.35632184 C11.6142529,6.2616092 11.263908,5.38574713 10.5632184,4.7291954 C9.86206897,4.07218391 8.82206897,3.74390805 7.44275862,3.74390805 L4.00505747,3.74390805 L4.00505747,10.9687356 L7.44275862,10.9687356 Z" id="path-3"></path>
        <polygon id="path-5" points="0 0 18.3908046 0 18.3908046 4.13793103 0 4.13793103"></polygon>
        <path d="M38.5004984,79.9724138 C17.1037829,79.1838677 0,61.5894463 0,40 C0,17.9085057 17.9085057,0 40,0 C62.0914943,0 80,17.9085057 80,40 C80,61.5894463 62.8962171,79.1838677 41.4995016,79.9724138 L38.5004984,79.9724138 L38.5004984,79.9724138 Z" id="path-7"></path>
    </defs>
    <g id="Design" stroke="none" stroke-width="1" fill="none" fill-rule="evenodd">
        <g id="iPhone-8" transform="translate(-40.000000, -7106.000000)">
            <g id="NP_emblem_circle-white" transform="translate(40.000000, 7106.000000)">
                <g id="Group-3" transform="translate(17.011494, 21.149425)">
                    <mask id="mask-2" fill="white">
                        <use xlink:href="#path-1"></use>
                    </mask>
                    <g id="Clip-2"></g>
                    <polygon id="Fill-1" fill="#FFFFFF" mask="url(#mask-2)" points="-0.0183908046 23.016092 18.9057471 23.016092 18.9057471 -0.0459770115 -0.0183908046 -0.0459770115"></polygon>
                </g>
                <g id="Group-6" transform="translate(45.517241, 44.137931)">
                    <mask id="mask-4" fill="white">
                        <use xlink:href="#path-3"></use>
                    </mask>
                    <g id="Clip-5"></g>
                    <polygon id="Fill-4" fill="#FFFFFF" mask="url(#mask-4)" points="-0.0551724138 23.0344828 15.7241379 23.0344828 15.7241379 -0.0275862069 -0.0551724138 -0.0275862069"></polygon>
                </g>
                <g id="Group-9" transform="translate(42.758621, 21.149425)">
                    <mask id="mask-6" fill="white">
                        <use xlink:href="#path-5"></use>
                    </mask>
                    <g id="Clip-8"></g>
                    <polygon id="Fill-7" fill="#FFFFFF" mask="url(#mask-6)" points="0 4.14712644 18.4275862 4.14712644 18.4275862 -0.0459770115 0 -0.0459770115"></polygon>
                </g>
                <g id="Group-12">
                    <mask id="mask-8" fill="white">
                        <use xlink:href="#path-7"></use>
                    </mask>
                    <g id="Clip-11"></g>
                    <path d="M40,80 C62.0914943,80 80,62.0914943 80,40 C80,17.9085057 62.0914943,0 40,0 C17.9085057,0 0,17.9085057 0,40 C0,62.0914943 17.9085057,80 40,80 Z" id="Stroke-10" stroke="#FFFFFF" stroke-width="8.27586207" mask="url(#mask-8)"></path>
                </g>
            </g>
        </g>
    </g>
</svg>