<?xml version="1.0" encoding="UTF-8"?><svg width="140px" height="71px" viewBox="0 0 140 71" version="1.1" xmlns="http://www.w3.org/2000/svg" xmlns:xlink="http://www.w3.org/1999/xlink">    <!-- Generator: Sketch 57 (83077) - https://sketch.com -->    <title>Group 36</title>    <desc>Created with Sketch.</desc>    <defs>        <polygon id="path-1" points="28.8364557 0 28.8364557 30.55485 6.80063291 0 0 0 0 44.375 7.55556962 44.375 7.55556962 13.8831625 29.5922785 44.375 36.3920253 44.375 36.3920253 0"></polygon>        <path d="M0.189620253,0 L0.189620253,44.375 L7.90822785,44.375 L7.90822785,28.4 L15.4974684,28.4 C17.7277215,28.4 19.7639241,28.0405625 21.6087342,27.3216875 L21.6087342,27.3216875 C23.4526582,26.6037 25.0281013,25.6105875 26.3350633,24.34235 L26.3350633,24.34235 C27.6437975,23.075 28.6512658,21.575125 29.3592405,19.8418375 L29.3592405,19.8418375 C30.0663291,18.1094375 30.4207595,16.2279375 30.4207595,14.2 L30.4207595,14.2 C30.4207595,12.171175 30.0663291,10.29145 29.3592405,8.5581625 L29.3592405,8.5581625 C28.6512658,6.824875 27.6437975,5.325 26.3350633,4.0567625 L26.3350633,4.0567625 C25.0281013,2.7894125 23.4526582,1.7963 21.6087342,1.077425 L21.6087342,1.077425 C19.7639241,0.3594375 17.7277215,0 15.4974684,0 L15.4974684,0 L0.189620253,0 Z M7.90822785,7.226025 L14.5334177,7.226025 C17.1916456,7.226025 19.1968354,7.8605875 20.5472152,9.128825 L20.5472152,9.128825 C21.898481,10.396175 22.5727848,12.0868625 22.5727848,14.2 L22.5727848,14.2 C22.5727848,16.3131375 21.898481,18.003825 20.5472152,19.271175 L20.5472152,19.271175 C19.1968354,20.5394125 17.1916456,21.1730875 14.5334177,21.1730875 L14.5334177,21.1730875 L7.90822785,21.1730875 L7.90822785,7.226025 Z" id="path-3"></path>        <polygon id="path-5" points="0.696455696 0 56.0770886 0 56.0770886 7.9244875 0.696455696 7.9244875"></polygon>    </defs>    <g id="Symbols" stroke="none" stroke-width="1" fill="none" fill-rule="evenodd">        <g id="Header-black" transform="translate(-88.000000, -30.000000)">            <g id="Group">                <g id="Group-36" transform="translate(88.000000, 30.000000)">                    <polygon id="Fill-1" fill="#000000" points="5.86591139 68.3652787 5.86591139 61.4028412 6.90882278 61.4028412 6.90882278 70.1056662 5.8286962 70.1056662 1.17413924 63.1441162 1.17413924 70.1056662 0.131227848 70.1056662 0.131227848 61.4028412 1.21135443 61.4028412"></polygon>                    <g id="Group-26" transform="translate(10.632911, 61.237500)" fill="#000000">                        <path d="M6.27917722,7.7370475 C6.67170886,7.546235 7.00753165,7.28886 7.28487342,6.96581 C7.56132911,6.64276 7.77664557,6.27001 7.92993671,5.8466725 C8.08322785,5.42511 8.15943038,4.98136 8.15943038,4.5171975 C8.15943038,4.053035 8.08322785,3.6101725 7.92993671,3.186835 C7.77664557,2.7634975 7.56132911,2.391635 7.28487342,2.0676975 C7.00753165,1.7446475 6.67170886,1.48816 6.27917722,1.2973475 C5.88575949,1.106535 5.45335443,1.0115725 4.98196203,1.0115725 C4.51056962,1.0115725 4.07816456,1.106535 3.68474684,1.2973475 C3.29221519,1.48816 2.95639241,1.7446475 2.67993671,2.0676975 C2.40259494,2.391635 2.18727848,2.7634975 2.03398734,3.186835 C1.88158228,3.6101725 1.80449367,4.053035 1.80449367,4.5171975 C1.80449367,4.98136 1.88158228,5.42511 2.03398734,5.8466725 C2.18727848,6.27001 2.40259494,6.64276 2.67993671,6.96581 C2.95639241,7.28886 3.29221519,7.546235 3.68474684,7.7370475 C4.07816456,7.92786 4.51056962,8.0228225 4.98196203,8.0228225 C5.45335443,8.0228225 5.88575949,7.92786 6.27917722,7.7370475 M6.71335443,0.364585 C7.23879747,0.59711 7.69158228,0.9157225 8.07259494,1.32131 C8.45360759,1.727785 8.74955696,2.20526 8.95955696,2.75196 C9.17132911,3.29866 9.27677215,3.8870725 9.27677215,4.5171975 C9.27677215,5.146435 9.17132911,5.7348475 8.95955696,6.2815475 C8.74955696,6.8300225 8.45360759,7.3057225 8.07259494,7.7121975 C7.69158228,8.1186725 7.23879747,8.437285 6.71335443,8.6689225 C6.18791139,8.9014475 5.61107595,9.0168225 4.98196203,9.0168225 C4.35373418,9.0168225 3.77601266,8.9014475 3.25056962,8.6689225 C2.72512658,8.437285 2.27234177,8.1186725 1.89132911,7.7121975 C1.51120253,7.3057225 1.21525316,6.8300225 1.00436709,6.2815475 C0.793481013,5.7348475 0.687151899,5.146435 0.687151899,4.5171975 C0.687151899,3.8870725 0.793481013,3.29866 1.00436709,2.75196 C1.21525316,2.20526 1.51120253,1.727785 1.89132911,1.32131 C2.27234177,0.9157225 2.72512658,0.59711 3.25056962,0.364585 C3.77601266,0.1329475 4.35373418,0.016685 4.98196203,0.016685 C5.61107595,0.016685 6.18791139,0.1329475 6.71335443,0.364585" id="Fill-2"></path>                        <path d="M17.3498987,3.8888475 C17.656481,3.6030725 17.8097722,3.2196725 17.8097722,2.739535 C17.8097722,2.25851 17.656481,1.87511 17.3498987,1.589335 C17.0442025,1.30356 16.5967342,1.1606725 16.0092658,1.1606725 L14.7306582,1.1606725 L14.7306582,4.31751 L16.0092658,4.31751 C16.5967342,4.31751 17.0442025,4.1746225 17.3498987,3.8888475 L17.3498987,3.8888475 Z M15.9472405,0.165785 C16.3778734,0.165785 16.7704051,0.226135 17.1266076,0.3459475 C17.4819241,0.4666475 17.7885063,0.6405975 18.0454684,0.868685 C18.3015443,1.0967725 18.5000253,1.369235 18.6409114,1.688735 C18.7817975,2.008235 18.8517975,2.3658975 18.8517975,2.7634975 C18.8517975,3.27026 18.752557,3.68206 18.5540759,4.0006725 C18.3555949,4.3201725 18.1296456,4.5686725 17.8771139,4.74706 C17.6254684,4.9254475 17.3853418,5.0479225 17.1576203,5.1135975 C16.9298987,5.18016 16.7872405,5.217435 16.7296456,5.2254225 L19.1371139,8.8677225 L17.8842025,8.8677225 L15.5378734,5.3123975 L14.7306582,5.3123975 L14.7306582,8.8677225 L13.6886329,8.8677225 L13.6886329,0.165785 L15.9472405,0.165785 Z" id="Fill-4"></path>                        <polygon id="Fill-6" points="22.6321519 1.160495 22.6321519 0.1656075 28.664557 0.1656075 28.664557 1.160495 26.1693671 1.160495 26.1693671 8.8684325 25.1264557 8.8684325 25.1264557 1.160495"></polygon>                        <polygon id="Fill-8" points="39.221443 0.16551875 39.221443 8.86834375 38.1785316 8.86834375 38.1785316 4.90210625 33.8225823 4.90210625 33.8225823 8.86834375 32.7796709 8.86834375 32.7796709 0.16551875 33.8225823 0.16551875 33.8225823 3.90810625 38.1785316 3.90810625 38.1785316 0.16551875"></polygon>                        <path d="M54.2050759,4.01975375 C54.5692532,3.75439125 54.7508987,3.34436625 54.7508987,2.78879125 C54.7508987,2.23321625 54.5692532,1.82319125 54.2050759,1.55871625 C53.8408987,1.29335375 53.3606456,1.16022875 52.7652025,1.16022875 L51.6230506,1.16022875 L51.6230506,4.41735375 L52.7652025,4.41735375 C53.3606456,4.41735375 53.8408987,4.28511625 54.2050759,4.01975375 L54.2050759,4.01975375 Z M52.8272278,0.16534125 C53.7381139,0.16534125 54.4593797,0.39342875 54.9936835,0.84960375 C55.5271013,1.30489125 55.7938101,1.95187875 55.7938101,2.78879125 C55.7938101,3.62659125 55.5271013,4.27269125 54.9936835,4.72886625 C54.4593797,5.18415375 53.7381139,5.41135375 52.8272278,5.41135375 L51.6230506,5.41135375 L51.6230506,8.86816625 L50.5810253,8.86816625 L50.5810253,0.16534125 L52.8272278,0.16534125 Z" id="Fill-10"></path>                        <path d="M63.7195823,3.8888475 C64.0261646,3.6030725 64.1794557,3.2196725 64.1794557,2.739535 C64.1794557,2.25851 64.0261646,1.87511 63.7195823,1.589335 C63.413,1.30356 62.9664177,1.1606725 62.3789494,1.1606725 L61.1012278,1.1606725 L61.1012278,4.31751 L62.3789494,4.31751 C62.9664177,4.31751 63.413,4.1746225 63.7195823,3.8888475 L63.7195823,3.8888475 Z M62.3169241,0.165785 C62.7466709,0.165785 63.1409747,0.226135 63.4962911,0.3459475 C63.8516076,0.4666475 64.1581899,0.6405975 64.4142658,0.868685 C64.6712278,1.0967725 64.8697089,1.369235 65.0105949,1.688735 C65.1505949,2.008235 65.221481,2.3658975 65.221481,2.7634975 C65.221481,3.27026 65.1222405,3.68206 64.9228734,4.0006725 C64.7252785,4.3201725 64.4993291,4.5686725 64.2476835,4.74706 C63.9951519,4.9254475 63.7550253,5.0479225 63.5273038,5.1135975 C63.2995823,5.18016 63.1569241,5.217435 63.0993291,5.2254225 L65.5076835,8.8677225 L64.2538861,8.8677225 L61.907557,5.3123975 L61.1012278,5.3123975 L61.1012278,8.8677225 L60.0583165,8.8677225 L60.0583165,0.165785 L62.3169241,0.165785 Z" id="Fill-12"></path>                        <path d="M74.8915823,7.7370475 C75.2841139,7.546235 75.6190506,7.28886 75.8972785,6.96581 C76.1737342,6.64276 76.3890506,6.27001 76.5423418,5.8466725 C76.6956329,5.42511 76.7718354,4.98136 76.7718354,4.5171975 C76.7718354,4.053035 76.6956329,3.6101725 76.5423418,3.186835 C76.3890506,2.7634975 76.1737342,2.391635 75.8972785,2.0676975 C75.6190506,1.7446475 75.2841139,1.48816 74.8915823,1.2973475 C74.4990506,1.106535 74.0657595,1.0115725 73.5943671,1.0115725 C73.1229747,1.0115725 72.6905696,1.106535 72.2971519,1.2973475 C71.9046203,1.48816 71.5696835,1.7446475 71.2923418,2.0676975 C71.015,2.391635 70.7996835,2.7634975 70.6463924,3.186835 C70.4931013,3.6101725 70.4168987,4.053035 70.4168987,4.5171975 C70.4168987,4.98136 70.4931013,5.42511 70.6463924,5.8466725 C70.7996835,6.27001 71.015,6.64276 71.2923418,6.96581 C71.5696835,7.28886 71.9046203,7.546235 72.2971519,7.7370475 C72.6905696,7.92786 73.1229747,8.0228225 73.5943671,8.0228225 C74.0657595,8.0228225 74.4990506,7.92786 74.8915823,7.7370475 M75.3257595,0.364585 C75.8512025,0.59711 76.3048734,0.9157225 76.685,1.32131 C77.0651266,1.727785 77.3610759,2.20526 77.571962,2.75196 C77.7837342,3.29866 77.8891772,3.8870725 77.8891772,4.5171975 C77.8891772,5.146435 77.7837342,5.7348475 77.571962,6.2815475 C77.3610759,6.8300225 77.0651266,7.3057225 76.685,7.7121975 C76.3048734,8.1186725 75.8512025,8.437285 75.3257595,8.6689225 C74.8003165,8.9014475 74.223481,9.0168225 73.5943671,9.0168225 C72.9652532,9.0168225 72.3884177,8.9014475 71.8629747,8.6689225 C71.3375316,8.437285 70.8847468,8.1186725 70.5037342,7.7121975 C70.1236076,7.3057225 69.8276582,6.8300225 69.6167722,6.2815475 C69.4058861,5.7348475 69.299557,5.146435 69.299557,4.5171975 C69.299557,3.8870725 69.4058861,3.29866 69.6167722,2.75196 C69.8276582,2.20526 70.1236076,1.727785 70.5037342,1.32131 C70.8847468,0.9157225 71.3375316,0.59711 71.8629747,0.364585 C72.3884177,0.1329475 72.9652532,0.016685 73.5943671,0.016685 C74.223481,0.016685 74.8003165,0.1329475 75.3257595,0.364585" id="Fill-14"></path>                        <path d="M86.1483797,0.16551875 L86.1483797,6.54398125 C86.1483797,6.90785625 86.0881266,7.24155625 85.9685063,7.54330625 C85.848,7.84594375 85.6787595,8.10775625 85.4598987,8.32696875 C85.2401519,8.54618125 84.9796456,8.71658125 84.6774937,8.83728125 C84.3753418,8.95709375 84.0377468,9.01744375 83.6655949,9.01744375 C83.3758481,9.01744375 83.1109114,8.98016875 82.8716709,8.90561875 C82.6315443,8.83106875 82.4162278,8.73521875 82.2257215,8.61895625 C82.0352152,8.50358125 81.8659747,8.36868125 81.7171139,8.21514375 C81.5682532,8.06160625 81.4406582,7.91161875 81.3316709,7.76163125 L82.0892658,7.10221875 C82.1557215,7.21049375 82.2363544,7.31876875 82.3311646,7.42615625 C82.4268608,7.53354375 82.5385063,7.63116875 82.6661013,7.71814375 C82.7954684,7.80511875 82.9398987,7.87700625 83.1011646,7.93558125 C83.2624304,7.99326875 83.4502785,8.02344375 83.6655949,8.02344375 C83.9305316,8.02344375 84.1538228,7.97729375 84.3363544,7.88588125 C84.518,7.79535625 84.6668608,7.67909375 84.7829367,7.53798125 C84.8990127,7.39686875 84.9814177,7.23978125 85.031038,7.06494375 C85.0806582,6.89099375 85.1054684,6.72148125 85.1054684,6.55551875 L85.1054684,0.16551875 L86.1483797,0.16551875 Z" id="Fill-16"></path>                        <polygon id="Fill-18" points="95.8243291 3.90792875 95.8243291 4.90192875 92.1506582 4.90192875 92.1506582 7.87327875 96.196481 7.87327875 96.196481 8.86816625 91.1077468 8.86816625 91.1077468 0.16534125 96.1220506 0.16534125 96.1220506 1.16022875 92.1506582 1.16022875 92.1506582 3.90792875"></polygon>                        <path d="M105.928519,1.30356 C105.510291,1.10831 105.053076,1.0115725 104.556873,1.0115725 C104.07662,1.0115725 103.640671,1.106535 103.247253,1.2973475 C102.853835,1.48816 102.517127,1.7446475 102.235354,2.0676975 C101.954468,2.391635 101.73738,2.764385 101.584089,3.186835 C101.430797,3.6101725 101.354595,4.053035 101.354595,4.5171975 C101.354595,4.98136 101.430797,5.42511 101.584089,5.8466725 C101.73738,6.27001 101.954468,6.64276 102.235354,6.96581 C102.517127,7.28886 102.852063,7.546235 103.241051,7.7370475 C103.630038,7.92786 104.060671,8.0228225 104.532063,8.0228225 C104.82181,8.0228225 105.094722,7.9873225 105.351684,7.91721 C105.607759,7.84621 105.840797,7.755685 106.05257,7.64386 C106.263456,7.532035 106.45219,7.407785 106.617,7.27111 C106.782696,7.1335475 106.923582,6.999535 107.038772,6.8672975 L107.746747,7.5879475 C107.597886,7.75391 107.416241,7.92076 107.200924,8.09116 C106.984722,8.26156 106.741051,8.41421 106.468139,8.550885 C106.195228,8.68756 105.894848,8.799385 105.568772,8.8872475 C105.24181,8.9742225 104.88738,9.0168225 104.507253,9.0168225 C103.886114,9.0168225 103.315481,8.9014475 102.794468,8.6689225 C102.27257,8.437285 101.824215,8.1186725 101.447633,7.7121975 C101.071051,7.3057225 100.775987,6.8300225 100.559785,6.2815475 C100.344468,5.7348475 100.237253,5.146435 100.237253,4.5171975 C100.237253,3.8870725 100.342696,3.29866 100.554468,2.75196 C100.765354,2.20526 101.061304,1.7286725 101.44143,1.3221975 C101.821557,0.9157225 102.275228,0.59711 102.800671,0.364585 C103.325228,0.1329475 103.902949,0.016685 104.532063,0.016685 C104.913076,0.016685 105.263962,0.0583975 105.586494,0.140935 C105.909911,0.2234725 106.20143,0.329085 106.461937,0.4577725 C106.722443,0.58646 106.951937,0.730235 107.151304,0.886435 C107.349785,1.04441 107.514595,1.1979475 107.64662,1.3470475 L106.927127,2.0304225 C106.679025,1.74021 106.346747,1.49881 105.928519,1.30356" id="Fill-20"></path>                        <polygon id="Fill-22" points="111.091772 1.160495 111.091772 0.1656075 117.124177 0.1656075 117.124177 1.160495 114.628987 1.160495 114.628987 8.8684325 113.586076 8.8684325 113.586076 1.160495"></polygon>                        <path d="M125.105506,6.0642875 C125.018671,5.9027625 124.901709,5.7581 124.751962,5.6294125 C124.603101,5.500725 124.425,5.3844625 124.218544,5.2815125 C124.012089,5.177675 123.787911,5.0685125 123.547785,4.95225 C123.266899,4.8200125 122.982468,4.6780125 122.698038,4.5298 C122.412722,4.3807 122.155759,4.2058625 121.928038,4.00795 C121.700316,3.8082625 121.516899,3.5784 121.376013,3.317475 C121.235127,3.0556625 121.165127,2.7521375 121.165127,2.40335 C121.165127,2.114025 121.218291,1.8255875 121.326392,1.538925 C121.433608,1.25315 121.591329,0.9984375 121.798671,0.7747875 C122.005127,0.5511375 122.263861,0.3692 122.573987,0.2280875 C122.884114,0.0878625 123.245633,0.0168625 123.65943,0.0168625 C123.966013,0.0168625 124.249557,0.0559125 124.510063,0.1349 C124.77057,0.213 125.004494,0.3150625 125.210949,0.4393125 C125.418291,0.5635625 125.600823,0.7002375 125.756772,0.8493375 C125.914494,0.9984375 126.042975,1.1439875 126.142215,1.2842125 L125.35981,1.918775 C125.28538,1.8105 125.193228,1.7031125 125.081582,1.595725 C124.969051,1.4883375 124.84057,1.389825 124.696139,1.3037375 C124.551709,1.215875 124.391329,1.1457625 124.218544,1.091625 C124.044873,1.038375 123.858797,1.01175 123.65943,1.01175 C123.42019,1.01175 123.21019,1.049025 123.032975,1.123575 C122.854873,1.198125 122.704241,1.297525 122.579304,1.421775 C122.456139,1.546025 122.362215,1.688025 122.301076,1.8504375 C122.239051,2.0119625 122.207152,2.1752625 122.207152,2.3421125 C122.207152,2.5489 122.253228,2.7290625 122.344494,2.8817125 C122.434873,3.03525 122.563354,3.1781375 122.728165,3.310375 C122.894747,3.4435 123.096772,3.5721875 123.336899,3.6964375 C123.577025,3.8206875 123.845506,3.949375 124.144114,4.0825 C124.47462,4.2316 124.775,4.386025 125.044367,4.5484375 C125.311962,4.7099625 125.539684,4.8856875 125.725759,5.0765 C125.912722,5.2673125 126.05538,5.482975 126.15462,5.7226 C126.253861,5.9631125 126.303481,6.24445 126.303481,6.5675 C126.303481,6.949125 126.235253,7.2917 126.098797,7.5943375 C125.962342,7.8960875 125.773608,8.1534625 125.533481,8.3646875 C125.294241,8.5759125 125.010696,8.7374375 124.683734,8.8492625 C124.356772,8.961975 124.007658,9.017 123.635506,9.017 C123.262468,9.017 122.927532,8.965525 122.62981,8.8616875 C122.331203,8.75785 122.066266,8.6220625 121.835886,8.450775 C121.603734,8.2812625 121.404367,8.0869 121.239557,7.8668 C121.073861,7.6475875 120.941835,7.4257125 120.841709,7.2020625 L121.710949,6.6802125 C121.78538,6.8541625 121.882848,7.0219 122.002468,7.183425 C122.122975,7.34495 122.261203,7.4878375 122.418924,7.6120875 C122.576646,7.737225 122.756519,7.8357375 122.958544,7.911175 C123.161456,7.985725 123.382975,8.023 123.622215,8.023 C123.829557,8.023 124.02981,7.9937125 124.224747,7.9351375 C124.419684,7.87745 124.590696,7.790475 124.739557,7.6742125 C124.888418,7.5588375 125.008924,7.4150625 125.099304,7.24555 C125.19057,7.0760375 125.235759,6.874575 125.235759,6.64205 C125.235759,6.4184 125.193228,6.2267 125.105506,6.0642875" id="Fill-24"></path>                    </g>                    <g id="Group-29">                        <mask id="mask-2" fill="white">                            <use xlink:href="#path-1"></use>                        </mask>                        <use id="Clip-28" fill="#000000" xlink:href="#path-1"></use>                    </g>                    <g id="Group-32" transform="translate(108.987342, 0.000000)">                        <mask id="mask-4" fill="white">                            <use xlink:href="#path-3"></use>                        </mask>                        <use id="Clip-31" fill="#000000" xlink:href="#path-3"></use>                    </g>                    <g id="Group-35" transform="translate(45.189873, 0.000000)">                        <mask id="mask-6" fill="white">                            <use xlink:href="#path-5"></use>                        </mask>                        <use id="Clip-34" fill="#000000" xlink:href="#path-5"></use>                    </g>                </g>            </g>        </g>    </g></svg>